<svg width="46" height="24" viewBox="0 0 46 24" fill="none" xmlns="http://www.w3.org/2000/svg">
<path fill-rule="evenodd" clip-rule="evenodd" d="M30.3604 9.3778C34.9996 6.48412 41.1063 7.89919 44 12.5385L43.7714 12.8883C43.2213 13.6926 42.555 14.4118 41.7937 15.0224C37.9019 18.1434 32.374 17.8468 28.8371 14.5312C28.27 15.9933 26.7985 16.9798 25.1519 16.8604L25 16.8462V16.5884C25 15.0437 25.6763 13.6327 26.7721 12.6672C25.7534 11.8768 25.0825 10.6671 25.0071 9.307L25 9.05027V8.23077L25.2073 8.2391C26.7644 8.34005 28.0977 9.29463 28.727 10.6524C29.2234 10.1731 29.7712 9.74528 30.3604 9.3778ZM36.0372 17.1902L36.1688 17.1838C35.4398 17.9098 34.5462 18.4612 33.5291 18.7598C32.7389 18.9918 31.9435 19.0508 31.1766 18.9581C31.5511 18.1974 31.8415 17.3842 32.0385 16.5369C33.3133 17.0284 34.6773 17.2493 36.0372 17.1902ZM37.0133 7.83862L37.1168 7.99445C35.1572 7.68972 33.0984 7.96928 31.2208 8.89804C30.647 7.68562 29.8773 6.62874 28.9708 5.76507C29.3619 5.54762 29.7808 5.37002 30.2229 5.2402C32.8327 4.47398 35.4983 5.59448 37.0133 7.83862Z" stroke="white" stroke-linecap="round"/>
<path fill-rule="evenodd" clip-rule="evenodd" d="M39.5 11.6V11.5V11.6Z" stroke="white" stroke-width="1.5" stroke-linecap="round" stroke-linejoin="round"/>
<path fill-rule="evenodd" clip-rule="evenodd" d="M15.6396 9.3778C11.0004 6.48412 4.89369 7.89919 2 12.5385L2.22859 12.8883C2.77871 13.6926 3.44499 14.4118 4.20635 15.0224C8.09814 18.1434 13.626 17.8468 17.1629 14.5312C17.73 15.9933 19.2015 16.9798 20.8481 16.8604L21 16.8462V16.5884C21 15.0437 20.3237 13.6327 19.2279 12.6672C20.2466 11.8768 20.9175 10.6671 20.9929 9.307L21 9.05027V8.23077L20.7927 8.2391C19.2356 8.34005 17.9023 9.29463 17.273 10.6524C16.7766 10.1731 16.2288 9.74528 15.6396 9.3778ZM9.96275 17.1902L9.8312 17.1838C10.5602 17.9098 11.4538 18.4612 12.4709 18.7598C13.2611 18.9918 14.0565 19.0508 14.8234 18.9581C14.4489 18.1974 14.1585 17.3842 13.9615 16.5369C12.6867 17.0284 11.3227 17.2493 9.96275 17.1902ZM8.98674 7.83862L8.88322 7.99445C10.8428 7.68972 12.9016 7.96928 14.7792 8.89804C15.353 7.68562 16.1227 6.62874 17.0292 5.76507C16.6381 5.54762 16.2192 5.37002 15.7771 5.2402C13.1673 4.47398 10.5017 5.59448 8.98674 7.83862Z" stroke="white" stroke-linecap="round"/>
<path fill-rule="evenodd" clip-rule="evenodd" d="M6.5 11.6V11.5V11.6Z" stroke="white" stroke-width="1.5" stroke-linecap="round" stroke-linejoin="round"/>
</svg>
