<svg width="864" height="774" viewBox="0 0 864 774" fill="none" xmlns="http://www.w3.org/2000/svg">
<path d="M843 158.6C829.596 127.564 810.269 99.4389 786.1 75.8C761.913 52.0906 733.396 33.2491 702.1 20.3C669.648 6.81928 634.841 -0.080911 599.7 -2.95347e-05C550.4 -2.95347e-05 502.3 13.5 460.5 39C450.5 45.1 441 51.8 432 59.1C423 51.8 413.5 45.1 403.5 39C361.7 13.5 313.6 -2.95347e-05 264.3 -2.95347e-05C228.8 -2.95347e-05 194.4 6.79997 161.9 20.3C130.5 33.3 102.2 52 77.9 75.8C53.6997 99.4122 34.3678 127.544 21 158.6C7.1 190.9 0 225.2 0 260.5C0 293.8 6.8 328.5 20.3 363.8C31.6 393.3 47.8 423.9 68.5 454.8C101.3 503.7 146.4 554.7 202.4 606.4C295.2 692.1 387.1 751.3 391 753.7L414.7 768.9C425.2 775.6 438.7 775.6 449.2 768.9L472.9 753.7C476.8 751.2 568.6 692.1 661.5 606.4C717.5 554.7 762.6 503.7 795.4 454.8C816.1 423.9 832.4 393.3 843.6 363.8C857.1 328.5 863.9 293.8 863.9 260.5C864 225.2 856.9 190.9 843 158.6V158.6Z" fill="white"/>
</svg>
