<svg width="153" height="221" viewBox="0 0 153 221" fill="none" xmlns="http://www.w3.org/2000/svg">
<path d="M153 80C153 124.183 118.75 160 76.5 160C34.2502 160 0 124.183 0 80C0 35.8172 34.2502 0 76.5 0C118.75 0 153 35.8172 153 80Z" fill="black"/>
<path d="M76.9208 220.25L138.842 128H15L76.9208 220.25Z" fill="black"/>
<path d="M83.32 44C90.47 44 97.215 47.065 102.315 52.63L109.69 45.87C102.67 38.215 93.305 34 83.32 34C73.33 34 63.97 38.215 56.96 45.875C53.468 49.693 50.7465 54.1496 48.945 59H36V69H46.57C46.38 70.65 46.25 72.315 46.25 74C46.25 75.685 46.38 77.35 46.57 79H36V89H48.945C50.755 93.85 53.45 98.305 56.96 102.13C63.97 109.785 73.33 114 83.32 114C93.305 114 102.67 109.785 109.685 102.13L102.31 95.37C97.215 100.935 90.47 104 83.32 104C76.17 104 69.43 100.94 64.33 95.37C62.6179 93.4434 61.164 91.3021 60.005 89H81V79H56.695C56.445 77.36 56.25 75.7 56.25 74C56.25 72.3 56.445 70.64 56.695 69H81V59H60.005C61.205 56.715 62.585 54.535 64.33 52.63C69.43 47.065 76.17 44 83.32 44Z" fill="white"/>
</svg>
