<svg width="153" height="221" viewBox="0 0 153 221" fill="none" xmlns="http://www.w3.org/2000/svg">
<path d="M153 80C153 124.183 118.75 160 76.5 160C34.2502 160 0 124.183 0 80C0 35.8172 34.2502 0 76.5 0C118.75 0 153 35.8172 153 80Z" fill="black"/>
<path d="M76.9208 220.25L138.842 128H15L76.9208 220.25Z" fill="black"/>
<path d="M104.125 73H79.125C77.4679 73.0017 75.8792 73.6607 74.7074 74.8324C73.5357 76.0042 72.8767 77.5929 72.875 79.25V98H38.5V66.75H32.25V116.75H38.5V104.25H113.5V116.75H119.75V88.625C119.745 84.4825 118.097 80.5111 115.168 77.5819C112.239 74.6528 108.267 73.005 104.125 73V73ZM113.5 98H79.125V79.25H104.125C106.611 79.2525 108.994 80.241 110.751 81.9986C112.509 83.7562 113.498 86.1394 113.5 88.625V98Z" fill="white"/>
<path d="M55.6875 76.125C56.6146 76.125 57.5209 76.3999 58.2917 76.915C59.0626 77.4301 59.6634 78.1621 60.0182 79.0187C60.373 79.8752 60.4658 80.8177 60.2849 81.727C60.1041 82.6363 59.6576 83.4715 59.0021 84.1271C58.3465 84.7826 57.5113 85.2291 56.602 85.4099C55.6927 85.5908 54.7502 85.498 53.8937 85.1432C53.0371 84.7884 52.3051 84.1876 51.79 83.4167C51.2749 82.6459 51 81.7396 51 80.8125C51.0017 79.5698 51.496 78.3785 52.3748 77.4998C53.2535 76.621 54.4448 76.1267 55.6875 76.125ZM55.6875 69.875C53.5243 69.875 51.4096 70.5165 49.611 71.7183C47.8123 72.9201 46.4104 74.6283 45.5826 76.6269C44.7547 78.6255 44.5381 80.8246 44.9602 82.9463C45.3822 85.068 46.4239 87.0168 47.9535 88.5465C49.4832 90.0761 51.432 91.1178 53.5537 91.5398C55.6754 91.9619 57.8745 91.7453 59.8731 90.9174C61.8717 90.0896 63.5799 88.6877 64.7817 86.8891C65.9835 85.0904 66.625 82.9757 66.625 80.8125C66.625 77.9117 65.4727 75.1297 63.4215 73.0785C61.3703 71.0273 58.5883 69.875 55.6875 69.875V69.875Z" fill="white"/>
<path d="M91.625 41.75H79.125V29.25H72.875V41.75H60.375V48H72.875V60.5H79.125V48H91.625V41.75Z" fill="white"/>
</svg>
