<svg width="153" height="221" viewBox="0 0 153 221" fill="none" xmlns="http://www.w3.org/2000/svg">
<path d="M153 80C153 124.183 118.75 160 76.5 160C34.2502 160 0 124.183 0 80C0 35.8172 34.2502 0 76.5 0C118.75 0 153 35.8172 153 80Z" fill="black"/>
<path d="M76.9208 220.25L138.842 128H15L76.9208 220.25Z" fill="black"/>
<path d="M26 55C26 51.6848 27.317 48.5054 29.6612 46.1612C32.0054 43.817 35.1848 42.5 38.5 42.5H113.5C116.815 42.5 119.995 43.817 122.339 46.1612C124.683 48.5054 126 51.6848 126 55V105C126 108.315 124.683 111.495 122.339 113.839C119.995 116.183 116.815 117.5 113.5 117.5H38.5C35.1848 117.5 32.0054 116.183 29.6612 113.839C27.317 111.495 26 108.315 26 105V55ZM38.5 48.75C36.8424 48.75 35.2527 49.4085 34.0806 50.5806C32.9085 51.7527 32.25 53.3424 32.25 55V56.3563L76 82.6062L119.75 56.3563V55C119.75 53.3424 119.092 51.7527 117.919 50.5806C116.747 49.4085 115.158 48.75 113.5 48.75H38.5ZM119.75 63.6437L90.325 81.3L119.75 99.4062V63.6437ZM119.537 106.619L84.2875 84.925L76 89.8938L67.7125 84.925L32.4625 106.613C32.8177 107.942 33.602 109.118 34.6937 109.957C35.7854 110.795 37.1234 111.25 38.5 111.25H113.5C114.876 111.25 116.213 110.796 117.305 109.959C118.396 109.122 119.181 107.948 119.537 106.619V106.619ZM32.25 99.4062L61.675 81.3L32.25 63.6437V99.4062Z" fill="white"/>
</svg>
