<svg width="153" height="221" viewBox="0 0 153 221" fill="none" xmlns="http://www.w3.org/2000/svg">
<path d="M153 80C153 124.183 118.75 160 76.5 160C34.2502 160 0 124.183 0 80C0 35.8172 34.2502 0 76.5 0C118.75 0 153 35.8172 153 80Z" fill="black"/>
<path d="M76.9208 220.25L138.842 128H15L76.9208 220.25Z" fill="black"/>
<path d="M61.7125 82.5808L72.4429 71.8504L45.8254 45.2708C39.9104 51.1858 39.9104 60.7787 45.8254 66.7316L61.7125 82.5808V82.5808ZM87.42 75.7179C93.2212 78.41 101.373 76.5141 107.402 70.4854C114.644 63.2433 116.047 52.8541 110.473 47.2804C104.937 41.7446 94.5483 43.1096 87.2683 50.3516C81.2396 56.3804 79.3437 64.5325 82.0358 70.3337L45.0292 107.34L50.3754 112.687L76.5 86.6379L102.587 112.725L107.933 107.378L81.8462 81.2916L87.42 75.7179V75.7179Z" fill="white"/>
</svg>
