<svg width="153" height="221" viewBox="0 0 153 221" fill="none" xmlns="http://www.w3.org/2000/svg">
<path d="M153 80C153 124.183 118.75 160 76.5 160C34.2502 160 0 124.183 0 80C0 35.8172 34.2502 0 76.5 0C118.75 0 153 35.8172 153 80Z" fill="black"/>
<path d="M76.9208 220.25L138.842 128H15L76.9208 220.25Z" fill="black"/>
<path d="M99.4775 114.17H105.772C108.957 114.17 111.573 111.744 111.952 108.635L118.208 46.1479H99.25V30.7917H91.7804V46.1479H72.9358L74.0733 55.0204C80.557 56.8025 86.6237 60.0254 90.2637 63.5896C95.7237 68.9738 99.4775 74.5475 99.4775 83.6475V114.17V114.17ZM34.7916 110.379V106.625H91.7804V110.379C91.7804 112.464 90.0741 114.17 87.9508 114.17H38.6212C36.4979 114.17 34.7916 112.464 34.7916 110.379V110.379ZM91.7804 83.8371C91.7804 53.5038 34.7916 53.5038 34.7916 83.8371H91.7804ZM34.8675 91.4583H91.7425V99.0417H34.8675V91.4583Z" fill="white"/>
</svg>
