<svg width="153" height="221" viewBox="0 0 153 221" fill="none" xmlns="http://www.w3.org/2000/svg">
<path d="M153 80C153 124.183 118.75 160 76.5 160C34.2502 160 0 124.183 0 80C0 35.8172 34.2502 0 76.5 0C118.75 0 153 35.8172 153 80Z" fill="black"/>
<path d="M76.9208 220.25L138.842 128H15L76.9208 220.25Z" fill="black"/>
<path d="M46.1666 94.6667C46.1666 98.0033 47.6454 100.999 49.9583 103.084V109.833C49.9583 111.919 51.6645 113.625 53.75 113.625H57.5416C59.627 113.625 61.3333 111.919 61.3333 109.833V106.042H91.6666V109.833C91.6666 111.919 93.3729 113.625 95.4583 113.625H99.25C101.335 113.625 103.042 111.919 103.042 109.833V103.084C105.355 100.999 106.833 98.0033 106.833 94.6667V56.75C106.833 43.4792 93.2591 41.5833 76.5 41.5833C59.7408 41.5833 46.1666 43.4792 46.1666 56.75V94.6667ZM59.4375 98.4583C56.2904 98.4583 53.75 95.9179 53.75 92.7708C53.75 89.6237 56.2904 87.0833 59.4375 87.0833C62.5845 87.0833 65.125 89.6237 65.125 92.7708C65.125 95.9179 62.5845 98.4583 59.4375 98.4583ZM93.5625 98.4583C90.4154 98.4583 87.875 95.9179 87.875 92.7708C87.875 89.6237 90.4154 87.0833 93.5625 87.0833C96.7095 87.0833 99.25 89.6237 99.25 92.7708C99.25 95.9179 96.7095 98.4583 93.5625 98.4583ZM99.25 75.7083H53.75V56.75H99.25V75.7083Z" fill="white"/>
</svg>
