<svg width="153" height="221" viewBox="0 0 153 221" fill="none" xmlns="http://www.w3.org/2000/svg">
<path d="M153 80C153 124.183 118.75 160 76.5 160C34.2502 160 0 124.183 0 80C0 35.8172 34.2502 0 76.5 0C118.75 0 153 35.8172 153 80Z" fill="black"/>
<path d="M76.9208 220.25L138.842 128H15L76.9208 220.25Z" fill="black"/>
<path d="M114.362 60.6109C112.29 55.3 108.989 51.1859 104.808 48.6816C103.843 50.5356 102.692 52.2866 101.373 53.9076C101.381 53.9119 101.388 53.9156 101.396 53.9199C107.623 57.4986 111.244 66.6441 110.203 76.1603C108.478 91.9262 103.689 102.731 96.7191 106.585C92.1879 109.09 86.5369 108.734 79.9222 105.526L79.2762 105.213H74.5127L73.8668 105.526C67.2521 108.734 61.6012 109.09 57.0699 106.585C50.1002 102.731 45.3121 91.9262 43.5863 76.1603C42.5449 66.6441 46.1666 57.4984 52.3931 53.9199C54.3988 52.7743 56.6733 52.1833 58.983 52.2074C63.6984 52.2074 69.1326 54.4166 75.0377 58.7809L75.2482 58.9371C75.2482 58.9371 83.7605 57.9021 87.1328 56.3711C97.2931 51.7584 99.5351 44.4266 99.9328 43.4309C101.105 40.522 101.691 37.4102 101.656 34.2743C101.622 31.1384 100.969 28.0402 99.7334 25.1576L98.9379 23.1715L96.7994 23.193C93.4177 23.23 90.082 23.982 87.0115 25.3994C83.941 26.8169 81.205 28.8678 78.9832 31.4175C76.7614 33.9673 75.104 36.9581 74.1199 40.1937C73.1359 43.4293 72.8473 46.8364 73.2732 50.1914C69.5818 48.123 65.9924 46.8041 62.5537 46.2578C57.682 45.4834 53.2156 46.2383 49.2787 48.5012C44.9549 50.9863 41.548 55.1738 39.4267 60.6105C37.4982 65.5533 36.7689 71.317 37.3732 76.8398C39.3541 94.9416 45.1191 107.119 54.0453 112.055C56.9782 113.682 60.2811 114.526 63.6351 114.504C67.4603 114.504 71.5705 113.49 75.9349 111.462H77.8549C86.1349 115.309 93.4965 115.509 99.7437 112.055C108.67 107.119 114.435 94.942 116.416 76.8398C117.02 71.3174 116.291 65.5537 114.362 60.6109V60.6109ZM90.0662 30.8801C91.5432 30.2443 93.1001 29.8129 94.6937 29.598C95.4017 32.0463 95.5737 34.6184 95.198 37.1391C94.8223 39.6598 93.9077 42.07 92.5165 44.2053C91.1253 46.3407 89.2902 48.1511 87.1362 49.5133C84.9822 50.8755 82.5599 51.7574 80.0344 52.099C78.8355 47.9472 79.1931 43.5005 81.0402 39.5937C82.8872 35.6868 86.0967 32.5884 90.0662 30.8801V30.8801Z" fill="white"/>
</svg>
